<svg xmlns="http://www.w3.org/2000/svg" viewBox="0 0 28 27" width="28" height="27">
	<style>
		tspan { white-space:pre }
		.shp0 { fill: #000000 } 
	</style>
	<path id="Forma 1" class="shp0" d="M18.87 0L9.13 0C4.64 0 1 3.64 1 8.13L1 17.88C1 22.36 4.64 26 9.13 26L18.87 26C23.36 26 27 22.36 27 17.88L27 8.13C27 3.64 23.36 0 18.87 0ZM24.56 17.88C24.56 21.01 22.01 23.56 18.87 23.56L9.13 23.56C5.99 23.56 3.44 21.01 3.44 17.88L3.44 8.13C3.44 4.99 5.99 2.44 9.13 2.44L18.87 2.44C22.01 2.44 24.56 4.99 24.56 8.13L24.56 17.88ZM14 6.5C10.41 6.5 7.5 9.41 7.5 13C7.5 16.59 10.41 19.5 14 19.5C17.59 19.5 20.5 16.59 20.5 13C20.5 9.41 17.59 6.5 14 6.5ZM14 17.06C11.76 17.06 9.94 15.24 9.94 13C9.94 10.76 11.76 8.94 14 8.94C16.24 8.94 18.06 10.76 18.06 13C18.06 15.24 16.24 17.06 14 17.06ZM20.99 5.15C21.47 5.15 21.85 5.53 21.85 6.01C21.85 6.49 21.47 6.88 20.99 6.88C20.51 6.88 20.12 6.49 20.12 6.01C20.12 5.53 20.51 5.15 20.99 5.15Z" />
</svg>