<svg xmlns="http://www.w3.org/2000/svg" viewBox="0 0 27 22" width="27" height="22">
	<style>
		tspan { white-space:pre }
		.shp0 { fill: #000000 } 
	</style>
	<path id="Forma 1" class="shp0" d="M26,2.49c-0.97,0.42 -2,0.7 -3.07,0.84c1.11,-0.66 1.95,-1.69 2.34,-2.93c-1.03,0.61 -2.17,1.04 -3.38,1.28c-0.98,-1.04 -2.37,-1.68 -3.89,-1.68c-2.95,0 -5.33,2.38 -5.33,5.3c0,0.42 0.04,0.82 0.12,1.21c-4.43,-0.21 -8.35,-2.33 -10.99,-5.54c-0.46,0.79 -0.73,1.7 -0.73,2.68c0,1.84 0.95,3.46 2.37,4.4c-0.86,-0.02 -1.7,-0.26 -2.41,-0.65c0,0.02 0,0.04 0,0.06c0,2.57 1.85,4.71 4.27,5.21c-0.43,0.12 -0.91,0.17 -1.4,0.17c-0.34,0 -0.69,-0.02 -1.01,-0.09c0.69,2.1 2.65,3.64 4.98,3.69c-1.81,1.41 -4.12,2.26 -6.61,2.26c-0.44,0 -0.86,-0.02 -1.28,-0.07c2.36,1.51 5.16,2.38 8.18,2.38c9.81,0 15.17,-8.08 15.17,-15.08c0,-0.23 -0.01,-0.46 -0.02,-0.68c1.06,-0.75 1.95,-1.68 2.67,-2.75z" />
</svg>