<?xml version="1.0" standalone="no"?>
<!DOCTYPE svg PUBLIC "-//W3C//DTD SVG 20010904//EN"
 "http://www.w3.org/TR/2001/REC-SVG-20010904/DTD/svg10.dtd">
<svg version="1.0" xmlns="http://www.w3.org/2000/svg"
 width="1764.000000pt" height="1351.000000pt" viewBox="0 0 1764.000000 1351.000000"
 preserveAspectRatio="xMidYMid meet">

<g transform="translate(0.000000,1351.000000) scale(0.100000,-0.100000)"
fill="#000000" stroke="none">
<path d="M0 6755 l0 -6755 8820 0 8820 0 0 6755 0 6755 -8820 0 -8820 0 0
-6755z m6840 5749 c11 -12 10 -18 -3 -31 -14 -14 -17 -14 -32 1 -14 13 -15 19
-5 31 16 19 24 19 40 -1z m-5800 -160 c11 -12 10 -18 -3 -31 -14 -14 -17 -14
-32 1 -14 13 -15 19 -5 31 16 19 24 19 40 -1z m2998 -379 c14 -31 15 -55 3
-55 -12 0 -80 43 -81 51 0 7 40 27 56 28 6 1 16 -10 22 -24z m-142 -102 c-11
-11 -17 4 -9 23 7 18 8 18 11 1 2 -10 1 -21 -2 -24z m11384 -19 c11 -12 10
-18 -3 -31 -14 -14 -17 -14 -32 1 -14 13 -15 19 -5 31 16 19 24 19 40 -1z
m-11018 -52 c6 -27 -3 -62 -14 -56 -14 9 -28 52 -22 68 7 18 32 10 36 -12z
m-238 -166 c56 -44 64 -59 22 -47 -23 6 -86 56 -100 79 -16 26 25 10 78 -32z
m-220 -526 c5 -28 4 -41 -2 -35 -6 6 -12 42 -15 80 -6 72 4 47 17 -45z m8851
-549 c155 -77 231 -230 211 -424 -7 -59 -12 -70 -44 -102 -178 -175 -476 -116
-586 115 -27 57 -31 76 -31 150 0 78 3 92 35 155 32 63 38 70 68 73 24 2 36
10 44 28 6 13 23 27 37 30 14 3 31 8 36 10 6 2 45 2 89 0 62 -3 91 -11 141
-35z m-8617 -198 c-10 -2 -26 -2 -35 0 -10 3 -2 5 17 5 19 0 27 -2 18 -5z
m-498 -136 c0 -2 -12 -14 -27 -28 l-28 -24 24 28 c23 25 31 32 31 24z m-2210
-533 c11 -12 10 -18 -3 -31 -14 -14 -17 -14 -32 1 -14 13 -15 19 -5 31 16 19
24 19 40 -1z m1400 -240 c11 -12 10 -18 -3 -31 -14 -14 -17 -14 -32 1 -14 13
-15 19 -5 31 16 19 24 19 40 -1z m12880 -460 c11 -12 10 -18 -3 -31 -14 -14
-17 -14 -32 1 -14 13 -15 19 -5 31 16 19 24 19 40 -1z m-11771 -299 l23 -25
-26 -27 -26 -26 -26 26 -26 27 23 25 c13 13 26 25 29 25 3 0 16 -12 29 -25z
m81 -780 c0 -8 -7 -15 -15 -15 -8 0 -15 7 -15 15 0 8 7 15 15 15 8 0 15 -7 15
-15z m108 3 c-3 -7 -11 -13 -18 -13 -7 0 -15 6 -17 13 -3 7 4 12 17 12 13 0
20 -5 18 -12z m102 -3 c0 -8 -7 -15 -15 -15 -8 0 -15 -7 -15 -15 0 -8 -7 -15
-15 -15 -8 0 -15 7 -15 15 0 8 7 15 15 15 8 0 15 7 15 15 0 8 7 15 15 15 8 0
15 -7 15 -15z m-247 -30 c1 -5 -6 -11 -15 -13 -11 -2 -18 3 -18 13 0 17 30 18
33 0z m107 0 c0 -8 -9 -15 -20 -15 -13 0 -20 -7 -20 -20 0 -11 -7 -20 -15 -20
-8 0 -15 -6 -15 -13 0 -8 -25 -39 -56 -70 -53 -53 -74 -62 -74 -34 0 16 101
117 117 117 7 0 13 5 13 11 0 15 42 59 58 59 6 0 12 -7 12 -15z m-150 -33 c0
-9 -50 -67 -111 -127 -143 -142 -169 -177 -169 -228 0 -97 124 -171 200 -121
14 9 71 62 127 118 83 81 105 98 115 87 11 -10 -10 -35 -109 -132 l-122 -119
-67 0 c-118 0 -174 56 -174 175 l0 67 143 148 c78 81 148 148 155 149 6 0 12
-7 12 -17z m227 2 c2 -5 -37 -50 -87 -99 -71 -71 -92 -87 -102 -77 -10 10 6
31 77 102 84 84 104 98 112 74z m63 -44 c0 -11 -7 -20 -15 -20 -8 0 -15 -6
-15 -12 0 -16 -44 -58 -59 -58 -6 0 -11 -6 -11 -13 0 -16 -153 -167 -169 -167
-6 0 -11 7 -11 15 0 8 9 15 20 15 12 0 20 7 20 18 0 21 106 132 126 132 8 0
14 7 14 15 0 8 9 15 20 15 13 0 20 7 20 20 0 11 7 20 15 20 8 0 15 9 15 20 0
11 7 20 15 20 8 0 15 -9 15 -20z m-342 -132 c-3 -7 -11 -13 -18 -13 -7 0 -15
6 -17 13 -3 7 4 12 17 12 13 0 20 -5 18 -12z m82 -22 c0 -8 -5 -18 -11 -22
-14 -8 -33 11 -25 25 10 16 36 13 36 -3z m200 -11 c0 -8 -7 -15 -15 -15 -8 0
-15 7 -15 15 0 8 7 15 15 15 8 0 15 -7 15 -15z m-263 -37 c24 -22 31 -72 12
-84 -6 -3 -8 -16 -5 -29 4 -14 -1 -32 -14 -47 -11 -14 -16 -29 -12 -33 4 -5 2
-5 -4 -2 -7 4 -17 0 -24 -8 -17 -20 -99 -20 -106 0 -4 8 -10 12 -16 9 -5 -3
-18 2 -29 12 -14 13 -19 30 -19 69 0 54 14 75 80 118 36 25 108 22 137 -5z
m231 -1 c2 -10 -3 -17 -12 -17 -10 0 -16 9 -16 21 0 24 23 21 28 -4z m-199
-1752 l23 -25 -26 -27 -26 -26 -26 26 -26 27 23 25 c13 13 26 25 29 25 3 0 16
-12 29 -25z m11771 -251 c11 -12 10 -18 -3 -31 -14 -14 -17 -14 -32 1 -14 13
-15 19 -5 31 16 19 24 19 40 -1z m-12880 -800 c11 -12 10 -18 -3 -31 -14 -14
-17 -14 -32 1 -14 13 -15 19 -5 31 16 19 24 19 40 -1z m10801 -211 c13 -16 12
-17 -3 -4 -10 7 -18 15 -18 17 0 8 8 3 21 -13z m1749 -3059 c11 -12 10 -18 -3
-31 -14 -14 -17 -14 -32 1 -14 13 -15 19 -5 31 16 19 24 19 40 -1z m-14240
-490 c11 -12 10 -18 -3 -31 -14 -14 -17 -14 -32 1 -14 13 -15 19 -5 31 16 19
24 19 40 -1z"/>
<path d="M12450 10510 c-43 -43 -11 -120 50 -120 36 0 70 34 70 70 0 60 -78
92 -120 50z"/>
<path d="M12340 10275 c-26 -32 13 -81 48 -59 34 22 22 74 -18 74 -10 0 -23
-7 -30 -15z"/>
<path d="M12740 10195 c-26 -32 13 -81 48 -59 34 22 22 74 -18 74 -10 0 -23
-7 -30 -15z"/>
<path d="M12490 10170 c-43 -43 -11 -120 50 -120 36 0 70 34 70 70 0 60 -78
92 -120 50z"/>
<path d="M3668 7557 c-45 -35 -54 -53 -44 -93 4 -15 14 -24 27 -24 11 0 22 -7
25 -15 4 -8 16 -15 28 -15 30 0 79 51 70 73 -3 10 1 29 11 43 16 24 16 27 -1
45 -26 28 -67 23 -116 -14z m84 -23 c14 -29 2 -57 -27 -62 -14 -3 -16 1 -10
27 6 27 4 31 -14 31 -12 0 -21 6 -21 15 0 10 10 15 30 15 23 0 33 -6 42 -26z"/>
</g>
</svg>
