<?xml version="1.0" standalone="no"?>
<!DOCTYPE svg PUBLIC "-//W3C//DTD SVG 20010904//EN"
 "http://www.w3.org/TR/2001/REC-SVG-20010904/DTD/svg10.dtd">
<svg version="1.0" xmlns="http://www.w3.org/2000/svg"
 width="1920.000000pt" height="1080.000000pt" viewBox="0 0 1920.000000 1080.000000"
 preserveAspectRatio="xMidYMid meet">

<g transform="translate(0.000000,1080.000000) scale(0.100000,-0.100000)"
fill="#000000" stroke="none">
<path d="M0 5400 l0 -5400 3525 0 c1939 0 3525 2 3525 5 0 2 -22 35 -49 72
-49 67 -71 107 -195 348 -78 150 -83 159 -175 275 -137 173 -234 256 -554 474
-53 36 -152 106 -220 154 -278 199 -431 249 -789 259 -297 8 -390 -4 -843
-111 -156 -37 -334 -60 -403 -53 -42 5 -96 43 -88 63 3 7 -1 17 -8 23 -10 8
-11 24 -4 68 14 83 14 85 60 183 25 53 155 251 178 270 7 6 61 93 90 145 13
22 33 69 46 105 33 91 29 242 -10 344 -26 65 -94 205 -105 216 -3 3 -27 37
-52 75 -54 82 -91 126 -248 294 -162 172 -230 218 -474 317 -171 70 -324 145
-405 199 -142 93 -303 267 -429 465 -116 181 -155 360 -103 474 44 98 128 152
385 245 268 98 414 167 580 275 61 40 117 79 125 87 8 8 69 59 135 114 164
137 383 351 470 460 163 204 320 488 394 710 22 66 60 198 86 294 66 246 105
352 200 546 108 222 139 295 176 413 120 380 122 479 12 639 -30 45 -87 111
-126 145 -155 139 -206 187 -289 272 -48 49 -100 108 -115 130 -16 23 -33 46
-39 53 -21 22 -72 138 -90 203 -24 90 -24 266 1 340 30 92 58 130 215 284 82
81 150 152 150 156 0 5 9 12 20 15 11 3 20 12 20 19 0 7 10 24 23 37 18 21 46
73 109 201 4 10 8 27 8 37 0 11 4 22 8 25 5 3 9 20 10 38 0 17 5 41 11 53 6
11 19 47 31 79 28 85 77 161 138 217 l54 49 -2486 0 -2486 0 0 -5400z"/>
<path d="M5600 10791 c38 -21 179 -62 330 -96 406 -89 539 -107 780 -108 291
0 455 42 618 161 34 25 62 47 62 49 0 2 -406 3 -902 3 -500 0 -896 -4 -888 -9z"/>
<path d="M13540 10764 c105 -68 211 -189 242 -275 31 -87 63 -223 83 -349 10
-58 26 -124 36 -147 10 -23 19 -44 19 -48 0 -3 20 -38 44 -78 59 -98 110 -201
137 -278 20 -56 23 -84 23 -219 1 -368 -98 -608 -501 -1210 -148 -222 -219
-350 -256 -465 -43 -133 -49 -165 -49 -268 0 -84 3 -105 24 -145 30 -58 98
-107 165 -117 71 -11 229 -7 361 10 202 25 272 34 340 45 222 35 229 36 347
51 132 15 406 13 490 -4 98 -21 240 -61 375 -106 209 -71 327 -97 665 -146
152 -23 198 -34 295 -71 132 -52 172 -75 244 -147 97 -95 146 -249 133 -416
-6 -73 -13 -97 -52 -183 -40 -88 -107 -179 -244 -332 -152 -169 -232 -279
-301 -416 -65 -128 -99 -226 -200 -585 -16 -55 -38 -122 -50 -150 -36 -84
-106 -221 -120 -235 -3 -3 -18 -25 -34 -50 -79 -121 -266 -320 -379 -404 -67
-49 -96 -66 -247 -149 -255 -139 -388 -242 -463 -359 -61 -97 -127 -282 -156
-443 -11 -56 -31 -192 -67 -450 -22 -158 -94 -418 -142 -512 -5 -10 -16 -31
-23 -48 -52 -113 -218 -305 -339 -391 -165 -118 -278 -169 -640 -290 -58 -19
-112 -38 -120 -41 -8 -3 -17 -7 -20 -8 -3 -1 -14 -5 -25 -9 -11 -4 -33 -12
-50 -18 -113 -38 -227 -99 -275 -149 -71 -73 -86 -149 -54 -278 16 -64 87
-230 102 -241 5 -3 49 -72 99 -155 79 -130 108 -187 142 -280 12 -31 13 -136
2 -172 l-10 -33 3055 0 3054 0 0 5400 0 5400 -2857 0 -2858 0 55 -36z"/>
</g>
</svg>
