<?xml version="1.0" standalone="no"?>
<!DOCTYPE svg PUBLIC "-//W3C//DTD SVG 20010904//EN"
 "http://www.w3.org/TR/2001/REC-SVG-20010904/DTD/svg10.dtd">
<svg version="1.0" xmlns="http://www.w3.org/2000/svg"
 width="1920.000000pt" height="1080.000000pt" viewBox="0 0 1920.000000 1080.000000"
 preserveAspectRatio="xMidYMid meet">

<g transform="translate(0.000000,1080.000000) scale(0.100000,-0.100000)"
fill="#000000" stroke="none">
<path d="M0 5400 l0 -5400 9600 0 9600 0 0 5400 0 5400 -9600 0 -9600 0 0
-5400z m9924 251 c30 -30 28 -121 -4 -187 -24 -49 -113 -161 -160 -200 -14
-12 -38 -33 -53 -46 -39 -34 -177 -117 -202 -121 -11 -2 -32 -7 -48 -12 -39
-11 -117 3 -117 21 0 8 -4 14 -8 14 -10 0 -14 21 -13 78 1 98 111 259 252 368
61 47 188 116 200 108 4 -2 17 0 30 4 32 12 98 -2 123 -27z"/>
</g>
</svg>
