<?xml version="1.0" standalone="no"?>
<!DOCTYPE svg PUBLIC "-//W3C//DTD SVG 20010904//EN"
 "http://www.w3.org/TR/2001/REC-SVG-20010904/DTD/svg10.dtd">
<svg version="1.0" xmlns="http://www.w3.org/2000/svg"
 width="1920.000000pt" height="1080.000000pt" viewBox="0 0 1920.000000 1080.000000"
 preserveAspectRatio="xMidYMid meet">

<g transform="translate(0.000000,1080.000000) scale(0.100000,-0.100000)"
fill="#000000" stroke="none">
<path d="M0 5400 l0 -5400 9600 0 9600 0 0 5400 0 5400 -9600 0 -9600 0 0
-5400z m11305 3770 c-4 7 6 5 24 -5 17 -9 36 -13 41 -10 5 3 12 0 16 -6 4 -8
3 -9 -4 -5 -7 4 -12 5 -12 2 0 -3 13 -12 30 -21 16 -8 29 -19 28 -23 -1 -4 5
-20 13 -37 9 -16 15 -46 13 -65 -4 -65 -8 -90 -15 -90 -4 0 -5 -13 -4 -30 1
-16 -1 -30 -5 -30 -3 0 -7 -7 -8 -15 -1 -8 -3 -22 -4 -30 -1 -8 -6 -15 -11
-15 -6 0 -8 -3 -4 -6 3 -4 -1 -23 -10 -43 -8 -20 -15 -44 -15 -53 0 -10 -3
-18 -8 -18 -5 0 -7 -7 -4 -15 4 -8 2 -15 -4 -15 -6 0 -9 -11 -7 -25 1 -14 -1
-25 -6 -25 -4 0 -8 -8 -7 -17 0 -10 -3 -29 -7 -43 -12 -45 -7 -243 10 -340 22
-128 20 -123 50 -230 15 -52 28 -99 29 -105 2 -5 6 -17 9 -25 4 -8 31 -89 61
-180 53 -162 60 -182 97 -267 11 -24 19 -45 19 -48 0 -14 116 -235 176 -336
225 -378 395 -495 934 -645 202 -57 346 -113 409 -161 64 -48 139 -133 165
-186 35 -72 38 -91 39 -202 0 -97 -5 -128 -25 -153 -11 -13 -11 -14 1 -8 8 6
7 0 -4 -18 -10 -14 -14 -26 -10 -26 5 0 0 -9 -10 -20 -10 -11 -15 -20 -11 -20
8 0 -35 -61 -72 -102 -13 -14 -23 -29 -23 -32 2 -8 -81 -96 -173 -185 -264
-256 -398 -395 -471 -486 -36 -45 -61 -76 -75 -92 -5 -7 -10 -14 -10 -17 0 -3
-20 -34 -45 -70 -25 -37 -45 -69 -45 -72 0 -4 -20 -37 -45 -74 -25 -37 -45
-72 -45 -77 0 -6 -13 -29 -30 -51 -16 -23 -30 -46 -30 -51 0 -5 -3 -11 -7 -13
-5 -1 -21 -22 -37 -45 -16 -24 -33 -43 -38 -43 -5 0 -6 -5 -3 -10 3 -6 -1 -13
-9 -16 -9 -3 -16 -10 -16 -16 0 -5 -6 -15 -12 -23 -25 -26 -47 -54 -58 -75 -6
-12 -20 -31 -30 -43 -10 -12 -28 -33 -40 -47 -12 -14 -31 -42 -41 -63 -11 -20
-24 -37 -29 -37 -6 0 -9 -3 -8 -7 2 -5 -7 -24 -18 -43 -12 -19 -27 -50 -35
-68 -8 -17 -17 -32 -21 -32 -5 0 -8 -7 -8 -15 0 -8 -4 -15 -10 -15 -5 0 -10
-7 -10 -15 0 -8 -4 -15 -10 -15 -5 0 -7 -6 -4 -14 3 -9 -3 -17 -15 -21 -12 -3
-19 -11 -15 -16 3 -6 -5 -20 -18 -32 -13 -12 -27 -30 -31 -40 -3 -9 -11 -17
-16 -17 -6 0 -7 -7 -4 -17 4 -10 2 -14 -5 -9 -6 3 -16 -2 -22 -13 -13 -26 -70
-88 -70 -77 0 4 -12 -6 -26 -23 -14 -17 -30 -29 -35 -25 -5 3 -9 1 -9 -5 0 -8
-49 -48 -165 -136 -47 -35 -131 -100 -141 -110 -6 -5 -26 -21 -44 -35 -106
-80 -158 -129 -469 -441 -274 -274 -478 -462 -567 -523 -143 -97 -304 -201
-379 -246 -49 -29 -102 -63 -117 -75 -32 -27 -143 -72 -195 -81 -21 -3 -73 -1
-116 5 -83 12 -114 28 -180 94 -37 38 -163 217 -152 217 4 0 -2 12 -13 27 -17
26 -106 201 -107 213 -1 6 -90 192 -110 230 -7 14 -26 50 -42 81 -16 31 -46
79 -66 106 -20 28 -37 53 -37 56 0 26 -195 214 -275 265 -81 51 -254 112 -370
131 -425 70 -732 274 -902 598 -85 162 -165 436 -239 813 -38 198 -86 362
-134 460 -31 64 -98 180 -109 190 -3 3 -26 30 -51 60 -40 50 -96 111 -230 249
-25 26 -67 73 -95 105 -27 33 -59 69 -70 80 -28 28 -85 102 -85 110 0 3 -16
28 -35 55 -19 26 -35 52 -35 56 0 4 -8 19 -18 33 -40 58 -83 187 -95 280 -48
402 223 777 745 1030 59 29 113 52 121 52 7 0 17 4 22 9 6 5 55 32 110 61 55
28 107 57 115 65 9 8 20 15 24 15 4 0 35 20 67 45 33 25 61 45 63 45 8 0 99
83 164 150 59 60 90 94 237 259 99 111 208 211 279 256 18 11 47 32 66 47 81
62 304 163 405 184 120 25 185 29 435 27 380 -2 741 -1 780 2 116 11 167 16
180 20 8 2 35 6 60 9 25 3 54 7 65 9 11 3 36 7 55 11 19 3 46 8 60 11 32 7
244 42 290 49 19 2 55 7 80 11 25 3 61 7 80 9 19 2 49 6 65 9 17 3 53 9 80 12
28 3 68 11 90 17 22 5 47 12 56 13 9 2 35 13 57 24 22 11 42 17 46 14 3 -4 6
0 6 7 0 7 3 11 6 7 4 -3 12 -1 19 6 32 30 54 45 59 40 3 -4 6 -2 6 4 0 5 18
28 39 51 21 22 36 43 33 46 -3 3 0 6 6 6 6 0 16 10 23 21 9 17 8 20 -3 14 -7
-3 -5 0 4 8 10 8 15 17 12 20 -3 3 4 10 15 17 12 6 19 15 16 21 -4 5 3 23 15
39 12 17 18 30 15 30 -3 0 4 14 16 32 14 18 17 28 8 24 -7 -4 0 5 16 19 17 15
23 24 15 20 -8 -4 1 7 20 24 19 17 39 31 43 31 5 0 5 6 1 13 -4 6 -4 9 1 5 4
-4 21 0 37 8 17 9 42 18 56 20 15 3 28 7 31 9 2 2 13 0 24 -6 14 -8 18 -8 12
1z"/>
</g>
</svg>
