<?xml version="1.0" standalone="no"?>
<!DOCTYPE svg PUBLIC "-//W3C//DTD SVG 20010904//EN"
 "http://www.w3.org/TR/2001/REC-SVG-20010904/DTD/svg10.dtd">
<svg version="1.0" xmlns="http://www.w3.org/2000/svg"
 width="1920.000000pt" height="1080.000000pt" viewBox="0 0 1920.000000 1080.000000"
 preserveAspectRatio="xMidYMid meet">

<g transform="translate(0.000000,1080.000000) scale(0.100000,-0.100000)"
fill="#000000" stroke="none">
<path d="M0 5400 l0 -5400 1928 0 1927 1 -60 25 c-33 14 -100 40 -150 59 -138
50 -462 179 -535 212 -127 59 -231 86 -575 154 -88 17 -198 42 -245 56 -96 28
-245 95 -317 144 -178 121 -276 322 -268 552 6 153 39 245 165 453 96 160 159
240 282 361 162 162 231 209 483 336 221 111 309 192 355 330 69 206 -54 494
-336 783 -153 156 -263 234 -484 344 -134 67 -357 160 -383 160 -7 0 -17 4
-22 9 -6 5 -26 14 -45 19 -31 9 -78 27 -161 60 -58 23 -115 97 -152 197 -49
130 -155 525 -188 700 -18 95 -18 366 1 425 7 25 14 47 14 50 3 16 41 107 50
119 5 7 15 21 21 31 36 61 77 109 187 217 251 248 269 268 409 465 46 65 90
125 97 135 12 17 12 16 8 -4 -7 -37 3 -26 29 30 21 43 25 66 24 137 -1 64 -3
76 -9 50 -7 -33 -7 -31 -9 18 0 28 -5 52 -11 52 -5 0 -10 16 -10 36 0 21 -4
33 -10 29 -6 -3 -10 4 -10 17 0 26 -26 110 -46 150 -8 14 -14 35 -14 46 0 11
-7 25 -15 32 -8 7 -15 20 -15 29 0 9 -11 39 -25 66 -13 28 -25 56 -25 63 0 7
-7 23 -14 35 -36 54 -170 421 -217 592 -23 83 -45 182 -54 245 -9 54 -9 270
-2 296 4 11 9 39 12 63 8 53 51 203 72 251 64 143 109 228 163 310 135 204
333 398 480 471 30 14 87 35 127 44 62 15 85 16 168 6 54 -6 105 -15 114 -20
32 -17 148 -42 222 -48 299 -23 473 266 326 542 -32 60 -113 161 -170 214 -28
25 -58 53 -66 61 -9 8 -42 34 -73 57 -66 49 -156 140 -164 165 -3 10 -10 18
-15 18 -5 0 -9 8 -9 18 0 10 -4 22 -8 27 -22 27 -35 98 -35 197 l0 108 -1358
0 -1359 0 0 -5400z"/>
<path d="M16440 10738 c-19 -34 -104 -154 -188 -267 -85 -113 -170 -228 -190
-256 -49 -66 -209 -253 -292 -340 -350 -368 -391 -420 -486 -615 -37 -74 -100
-204 -141 -287 -40 -84 -135 -260 -209 -390 -224 -396 -354 -674 -354 -761 0
-37 15 -71 39 -89 17 -13 105 -11 266 6 50 6 126 13 170 16 127 10 301 34 399
56 422 92 596 142 763 219 196 91 303 116 403 96 14 -3 39 -9 55 -12 17 -3 35
-9 40 -12 6 -4 19 -8 30 -9 11 -2 55 -15 98 -29 43 -14 83 -27 90 -28 7 -1 18
-5 25 -9 6 -5 12 -6 12 -3 0 2 15 0 33 -5 17 -5 48 -12 67 -15 68 -11 75 -12
75 -14 0 -2 21 -6 70 -14 22 -4 50 -13 62 -22 13 -8 23 -12 23 -9 0 7 79 -43
104 -66 11 -11 23 -19 28 -19 4 0 8 -8 8 -17 0 -9 3 -13 7 -10 3 4 12 -3 19
-16 18 -31 83 -164 104 -212 9 -22 25 -57 34 -77 9 -20 19 -50 22 -67 4 -17
10 -31 14 -31 5 0 12 -14 15 -32 4 -18 11 -39 16 -48 13 -23 111 -318 138
-415 5 -16 15 -55 24 -85 88 -305 114 -480 103 -707 -5 -99 -15 -157 -51 -300
-43 -166 -52 -191 -143 -373 -98 -195 -133 -287 -151 -390 -5 -30 -15 -84 -21
-120 -12 -70 -3 -397 15 -505 13 -81 3 -486 -16 -635 -21 -165 -27 -246 -28
-332 -1 -52 -5 -88 -11 -88 -5 0 -10 -25 -10 -55 0 -30 -4 -55 -10 -55 -5 0
-10 -18 -10 -41 0 -24 -4 -38 -10 -34 -6 4 -10 -7 -10 -24 0 -17 -4 -31 -10
-31 -5 0 -10 -7 -10 -16 0 -19 -62 -178 -96 -246 -14 -27 -22 -48 -18 -48 3 0
-4 -13 -15 -29 -12 -16 -21 -36 -21 -44 0 -8 -7 -20 -15 -27 -8 -7 -13 -16
-10 -20 3 -4 -2 -13 -10 -20 -8 -7 -15 -18 -15 -25 0 -7 -7 -18 -15 -25 -8 -7
-13 -16 -10 -20 3 -4 -2 -13 -10 -20 -8 -7 -15 -17 -15 -23 0 -5 -11 -25 -25
-43 -14 -18 -25 -36 -25 -39 0 -4 -13 -24 -30 -45 -16 -21 -30 -42 -30 -48 0
-5 -7 -12 -15 -16 -8 -3 -15 -10 -15 -17 0 -12 -59 -87 -105 -134 -16 -17 -41
-44 -55 -60 -59 -70 -135 -130 -365 -287 -49 -34 -110 -76 -135 -94 -25 -19
-58 -41 -75 -50 -16 -9 -32 -20 -35 -23 -3 -3 -41 -33 -85 -65 -113 -84 -282
-256 -349 -355 -78 -114 -153 -267 -178 -360 -41 -157 -23 -378 48 -560 45
-115 153 -304 217 -377 l21 -24 1613 0 1613 0 0 5400 0 5400 -1362 0 -1363 -1
-35 -61z"/>
<path d="M2380 6704 c-30 -8 -60 -16 -66 -17 -7 -2 -20 -9 -30 -17 -9 -8 -20
-14 -23 -13 -3 1 -16 -6 -28 -17 -12 -10 -24 -16 -28 -12 -3 3 -8 -4 -12 -17
-4 -17 -8 -19 -14 -9 -7 10 -9 9 -9 -5 0 -10 -4 -15 -10 -12 -5 3 -10 -2 -10
-12 0 -15 -2 -16 -10 -3 -7 12 -10 8 -11 -15 l-1 -30 -13 30 c-14 29 -14 28
-15 -35 0 -36 -3 -83 -7 -105 -6 -36 -5 -39 10 -27 14 12 17 10 23 -12 3 -14
10 -26 15 -26 5 0 9 -7 9 -15 0 -8 4 -15 8 -15 4 0 16 -13 25 -30 15 -25 110
-132 172 -195 180 -178 438 -376 572 -436 137 -63 295 -78 409 -39 161 56 319
199 401 365 43 86 56 143 52 228 -4 65 -9 81 -41 129 -89 134 -306 220 -825
328 -254 52 -429 63 -543 34z"/>
<path d="M2070 6511 c0 -27 -2 -64 -5 -82 l-5 -34 14 30 c17 34 21 135 6 135
-5 0 -10 -22 -10 -49z"/>
</g>
</svg>
