<?xml version="1.0" standalone="no"?>
<!DOCTYPE svg PUBLIC "-//W3C//DTD SVG 20010904//EN"
 "http://www.w3.org/TR/2001/REC-SVG-20010904/DTD/svg10.dtd">
<svg version="1.0" xmlns="http://www.w3.org/2000/svg"
 width="1920.000000pt" height="1080.000000pt" viewBox="0 0 1920.000000 1080.000000"
 preserveAspectRatio="xMidYMid meet">

<g transform="translate(0.000000,1080.000000) scale(0.100000,-0.100000)"
fill="#000000" stroke="none">
<path d="M19160 10795 c0 -10 30 -65 35 -65 3 0 5 16 5 35 0 28 -4 35 -20 35
-11 0 -20 -2 -20 -5z"/>
<path d="M19148 202 c-26 -48 -63 -112 -82 -142 l-35 -55 81 -3 c44 -2 82 -1
85 1 2 2 2 68 1 145 l-3 141 -47 -87z"/>
</g>
</svg>
