<?xml version="1.0" standalone="no"?>
<!DOCTYPE svg PUBLIC "-//W3C//DTD SVG 20010904//EN"
 "http://www.w3.org/TR/2001/REC-SVG-20010904/DTD/svg10.dtd">
<svg version="1.0" xmlns="http://www.w3.org/2000/svg"
 width="1920.000000pt" height="1080.000000pt" viewBox="0 0 1920.000000 1080.000000"
 preserveAspectRatio="xMidYMid meet">

<g transform="translate(0.000000,1080.000000) scale(0.100000,-0.100000)"
fill="#000000" stroke="none">
<path d="M0 5400 l0 -5400 9600 0 9600 0 0 5400 0 5400 -9600 0 -9600 0 0
-5400z m9000 5131 c58 -6 114 -13 125 -17 72 -22 395 -52 690 -64 241 -10 524
-29 545 -37 8 -3 34 -5 58 -4 25 2 42 -2 42 -9 0 -6 19 -11 48 -10 47 0 133
-5 142 -9 3 -1 41 -3 85 -6 163 -9 252 -15 315 -19 36 -3 106 -8 155 -11 50
-3 115 -8 145 -10 30 -2 165 -7 300 -10 675 -14 791 -28 984 -119 201 -95 340
-231 542 -531 37 -55 90 -131 119 -170 120 -163 165 -282 165 -432 0 -229
-100 -463 -370 -868 -161 -241 -248 -424 -285 -595 -20 -93 -13 -295 14 -377
31 -94 56 -138 103 -176 65 -52 97 -65 205 -83 110 -18 273 -15 623 11 256 20
548 26 634 15 90 -12 215 -44 371 -95 40 -13 233 -88 270 -105 11 -5 47 -21
80 -35 145 -65 297 -146 333 -178 10 -9 22 -17 26 -17 15 0 135 -102 157 -135
13 -19 27 -35 31 -35 20 0 68 -133 68 -189 0 -80 -79 -266 -223 -521 -118
-208 -186 -352 -264 -555 -8 -22 -19 -49 -24 -60 -4 -11 -22 -60 -39 -110 -37
-103 -45 -123 -110 -260 -84 -178 -237 -356 -407 -472 -21 -15 -79 -54 -128
-87 -167 -112 -273 -199 -332 -270 -71 -86 -155 -276 -180 -406 -2 -14 -11
-54 -18 -90 -8 -36 -26 -128 -40 -205 -14 -77 -30 -158 -35 -180 -4 -22 -14
-67 -21 -100 -37 -181 -135 -443 -205 -547 -19 -28 -34 -52 -34 -55 0 -9 -109
-140 -141 -168 -205 -182 -373 -265 -647 -320 -92 -19 -166 -26 -300 -30 -315
-9 -447 -23 -547 -57 -56 -19 -197 -90 -216 -109 -10 -10 -19 -16 -19 -13 0 3
-28 -23 -63 -58 -67 -67 -117 -140 -138 -201 -7 -20 -17 -37 -21 -37 -4 0 -8
-11 -8 -24 0 -13 -7 -43 -16 -67 -8 -24 -20 -66 -25 -94 -6 -27 -13 -61 -16
-75 -2 -14 -6 -34 -8 -45 -2 -11 -6 -31 -9 -45 -7 -30 -14 -61 -21 -97 -3 -14
-10 -34 -15 -43 -5 -10 -6 -20 -3 -24 3 -3 0 -6 -7 -6 -7 0 -11 -3 -7 -6 24
-24 -106 -159 -163 -171 -16 -3 -27 -9 -25 -13 3 -5 -20 -12 -50 -15 -30 -4
-55 -10 -55 -14 0 -3 -12 -6 -27 -7 -16 -1 -73 -6 -128 -12 -55 -6 -154 -14
-220 -17 -479 -26 -676 -51 -825 -109 -44 -17 -160 -56 -180 -61 -8 -2 -40
-13 -70 -25 -30 -12 -68 -26 -85 -30 -16 -5 -75 -24 -130 -43 -242 -83 -376
-102 -609 -88 -182 11 -444 44 -481 60 -11 5 -91 23 -178 40 -87 17 -166 36
-175 41 -9 5 -75 23 -147 40 -186 44 -406 121 -425 149 -3 4 -36 26 -75 48
-132 77 -291 223 -418 383 -92 117 -225 237 -351 318 -80 52 -165 93 -386 187
-311 133 -499 232 -910 482 -290 176 -293 178 -416 270 -171 126 -234 204
-427 518 -33 55 -98 157 -144 227 -46 70 -83 129 -83 132 0 3 -20 36 -44 73
-24 37 -56 91 -71 118 -45 81 -91 166 -124 229 -17 33 -35 64 -40 70 -10 12
-60 140 -66 169 -2 9 -6 21 -9 26 -7 10 -20 133 -20 181 1 58 7 104 17 118 5
6 6 12 3 12 -4 0 2 13 13 29 11 15 18 31 15 34 -3 3 4 8 15 12 12 3 19 10 16
15 -3 5 6 12 20 16 13 3 23 10 20 14 -3 4 7 11 21 14 15 4 33 14 41 21 8 8 23
15 34 15 10 0 19 4 19 10 0 5 19 14 43 21 23 6 44 14 47 19 3 4 35 17 73 29
37 13 73 29 80 36 17 17 113 65 129 65 7 0 39 20 70 45 32 25 61 45 66 45 5 0
21 13 37 30 15 16 31 28 34 27 6 -2 31 24 95 97 14 16 26 33 26 38 0 5 7 16
15 24 8 9 15 26 15 39 0 13 4 25 10 27 25 8 14 193 -19 311 -12 42 -19 82 -16
87 3 6 1 10 -5 10 -6 0 -9 4 -6 9 4 5 -1 38 -9 73 -28 121 -36 280 -19 376 14
84 84 402 103 472 26 96 34 229 33 541 -2 333 4 418 43 584 34 145 105 330
165 435 15 25 55 97 90 160 35 63 66 117 70 120 22 17 145 271 230 475 25 62
77 232 95 315 2 8 13 53 25 100 11 47 25 103 31 125 22 89 88 235 139 310 34
49 127 141 172 169 18 11 35 23 38 26 3 3 39 22 80 43 74 37 145 61 290 98 41
10 89 23 105 28 17 6 46 13 65 16 38 6 174 47 260 78 30 11 69 23 85 27 40 11
263 104 404 170 149 69 241 118 435 229 88 50 163 91 166 91 4 0 13 7 20 15 7
8 16 13 20 10 5 -3 12 0 15 6 4 6 35 24 69 40 33 16 68 34 76 39 29 18 152 69
260 108 68 24 238 65 248 59 4 -3 36 -1 72 3 73 9 164 6 320 -9z"/>
</g>
</svg>
