<svg xmlns="http://www.w3.org/2000/svg" viewBox="0 0 32 32" width="32" height="32">
	<style>
		tspan { white-space:pre }
		.shp0 { fill: #ffffff } 
	</style>
	<path id="HAKKIMIZDA" class="shp0" d="M28.58 0L28.58 0.07L28.57 0.06C25.67 3.45 22.1 5.71 14.12 5.71C10.89 5.71 7.89 6.71 5.68 8.53C3.3 10.49 1.99 13.3 1.99 16.44C1.99 18.5 2.45 20.1 3.36 21.23C2.59 22.14 1.95 23.08 1.44 24.05C0.49 25.88 0 27.81 0 29.79L0 31L2.42 31L2.42 29.79C2.42 27.38 3.32 25.3 4.63 23.53C5.23 24.77 6.13 25.94 7.24 26.92C9.16 28.61 11.52 29.55 13.89 29.55C17.66 29.55 20.88 28.45 23.46 26.3C25.63 24.48 27.35 21.89 28.58 18.59C30.75 12.77 31 5.88 31 1.21L31 0L28.58 0ZM4.41 16.44C4.41 10.73 9.45 8.13 14.12 8.13C21.3 8.13 25.31 6.33 28.09 3.97C27.57 5.32 26.63 6.56 25.2 7.8C22.82 9.86 19 11.95 13.16 14.38C11.39 15.12 8.01 16.76 5.07 19.46C4.63 18.76 4.41 17.75 4.41 16.44ZM26.32 17.74C23.96 24.06 19.89 27.12 13.89 27.12C10.34 27.12 7.26 24.28 6.43 21.52C9.35 18.73 12.98 17.08 14.09 16.62C20.25 14.05 24.16 11.89 26.78 9.63C27.35 9.14 27.86 8.63 28.31 8.12C28.02 11.31 27.45 14.7 26.32 17.74Z" />
</svg>