<svg xmlns="http://www.w3.org/2000/svg" viewBox="0 0 34 31" width="34" height="31">
	<style>
		tspan { white-space:pre }
		.shp0 { fill: #ffffff } 
	</style>
	<path id="İLETİŞİM" class="shp0" d="M33 13.2C33 13.18 33 13.17 33 13.15C33 13.14 33 13.14 33 13.13C32.99 13.12 32.99 13.11 32.99 13.09C32.99 13.09 32.99 13.08 32.99 13.07C32.99 13.06 32.98 13.05 32.98 13.04C32.98 13.03 32.98 13.02 32.98 13.01C32.97 13 32.97 12.99 32.97 12.98C32.97 12.97 32.96 12.96 32.96 12.95C32.96 12.94 32.96 12.93 32.95 12.92C32.95 12.92 32.95 12.91 32.94 12.9C32.94 12.89 32.94 12.88 32.93 12.87C32.93 12.86 32.92 12.85 32.92 12.85C32.92 12.84 32.91 12.83 32.91 12.82C32.9 12.81 32.9 12.8 32.89 12.79C32.89 12.78 32.88 12.77 32.88 12.77C32.88 12.76 32.87 12.75 32.87 12.74C32.86 12.73 32.85 12.72 32.85 12.72C32.84 12.71 32.84 12.7 32.83 12.69C32.83 12.68 32.82 12.68 32.81 12.67C32.81 12.66 32.8 12.65 32.8 12.65C32.79 12.64 32.78 12.63 32.78 12.62C32.77 12.62 32.77 12.61 32.76 12.6C32.75 12.59 32.74 12.59 32.74 12.58C32.73 12.57 32.72 12.57 32.72 12.56C32.71 12.55 32.7 12.55 32.69 12.54C32.69 12.53 32.68 12.53 32.67 12.52C32.67 12.51 32.66 12.51 32.65 12.5C32.64 12.49 32.63 12.49 32.63 12.48C32.62 12.48 32.62 12.48 32.62 12.48L26.97 8.37L26.97 5.88C26.97 5.38 26.55 4.97 26.02 4.97L22.28 4.97L17.07 1.18C16.73 0.94 16.27 0.94 15.93 1.18L10.72 4.97L6.98 4.97C6.46 4.97 6.03 5.38 6.03 5.88L6.03 8.37L0.38 12.48C0.38 12.48 0.38 12.48 0.37 12.48C0.37 12.49 0.36 12.49 0.35 12.5C0.34 12.51 0.33 12.51 0.33 12.52C0.32 12.53 0.31 12.53 0.31 12.54C0.3 12.55 0.29 12.55 0.28 12.56C0.28 12.57 0.27 12.57 0.26 12.58C0.26 12.59 0.25 12.59 0.24 12.6C0.23 12.61 0.23 12.62 0.22 12.62C0.22 12.63 0.21 12.64 0.2 12.65C0.2 12.65 0.19 12.66 0.19 12.67C0.18 12.68 0.17 12.69 0.17 12.69C0.16 12.7 0.16 12.71 0.15 12.72C0.15 12.72 0.14 12.73 0.13 12.74C0.13 12.75 0.12 12.76 0.12 12.77C0.12 12.77 0.11 12.78 0.11 12.79C0.1 12.8 0.1 12.81 0.09 12.82C0.09 12.83 0.08 12.84 0.08 12.85C0.08 12.85 0.07 12.86 0.07 12.87C0.06 12.88 0.06 12.89 0.06 12.9C0.05 12.91 0.05 12.92 0.05 12.92C0.04 12.93 0.04 12.94 0.04 12.95C0.04 12.96 0.03 12.97 0.03 12.98C0.03 12.99 0.03 13 0.02 13.01C0.02 13.02 0.02 13.03 0.02 13.04C0.02 13.05 0.01 13.06 0.01 13.07C0.01 13.08 0.01 13.09 0.01 13.09C0.01 13.11 0.01 13.12 0 13.13C0 13.14 0 13.14 0 13.15C0 13.17 0 13.18 0 13.2C0 13.2 0 13.21 0 13.21L0 29.08C0 29.59 0.43 30 0.95 30L32.05 30C32.57 30 33 29.59 33 29.08L33 13.21C33 13.21 33 13.2 33 13.2ZM26.97 10.67L30.32 13.1L26.97 14.95L26.97 10.67ZM16.5 3.06L19.12 4.97L13.88 4.97L16.5 3.06ZM7.93 6.8L25.07 6.8L25.07 15.99L16.5 20.7L7.93 15.99L7.93 6.8ZM6.03 10.67L6.03 14.95L2.68 13.1L6.03 10.67ZM31.1 28.17L1.9 28.17L1.9 14.79L16.02 22.55C16.06 22.57 16.1 22.59 16.14 22.61C16.26 22.65 16.38 22.67 16.5 22.67C16.5 22.67 16.5 22.67 16.5 22.67C16.5 22.67 16.5 22.67 16.5 22.67C16.63 22.67 16.76 22.65 16.89 22.59C16.92 22.58 16.95 22.57 16.97 22.55L31.1 14.79L31.1 28.17L31.1 28.17ZM15.23 8.63L10.15 8.63C9.63 8.63 9.2 9.04 9.2 9.55C9.2 10.05 9.63 10.46 10.15 10.46L15.23 10.46C15.76 10.46 16.18 10.05 16.18 9.55C16.18 9.04 15.76 8.63 15.23 8.63ZM22.85 13.52L10.15 13.52C9.63 13.52 9.2 13.93 9.2 14.43C9.2 14.94 9.63 15.35 10.15 15.35L22.85 15.35C23.37 15.35 23.8 14.94 23.8 14.43C23.8 13.93 23.37 13.52 22.85 13.52Z" />
</svg>