<svg xmlns="http://www.w3.org/2000/svg" viewBox="0 0 34 30" width="34" height="30">
	<style>
		tspan { white-space:pre }
		.shp0 { fill: #ffffff } 
	</style>
	<path id="SATIŞ NOKTALARI" class="shp0" d="M23.45 16.25L18.96 16.25C17.73 16.25 16.74 17.22 16.74 18.41L16.74 21.75C16.74 22.95 17.73 23.92 18.96 23.92L23.45 23.92C24.67 23.92 25.67 22.95 25.67 21.75L25.67 18.41C25.67 17.22 24.67 16.25 23.45 16.25ZM24.05 21.75C24.05 22.08 23.78 22.34 23.45 22.34L18.96 22.34C18.62 22.34 18.35 22.07 18.35 21.75L18.35 18.41C18.35 18.08 18.63 17.82 18.96 17.82L23.45 17.82C23.78 17.82 24.05 18.09 24.05 18.41L24.05 21.75ZM33 10.17C33 10.04 32.97 9.91 32.89 9.79L27.98 1.4C27.84 1.16 27.57 1 27.28 1L5.71 1C5.42 1 5.15 1.15 5.01 1.4L0.11 9.79C0.04 9.91 0 10.04 0 10.17C0 12.05 1.17 13.67 2.83 14.38L2.83 28.21C2.83 28.65 3.2 29 3.64 29L8.11 29C8.12 29 8.13 29 8.13 29L14.4 29C14.41 29 14.42 29 14.42 29L29.35 29C29.8 29 30.16 28.65 30.16 28.21L30.16 14.48C30.16 14.45 30.16 14.42 30.15 14.39C31.83 13.68 33 12.06 33 10.17ZM6.18 2.58L26.81 2.58L30.65 9.14L2.35 9.14L6.18 2.58ZM23.49 10.7C23.23 12.12 21.96 13.19 20.42 13.19C18.89 13.19 17.62 12.12 17.36 10.7L23.49 10.7ZM15.64 10.7C15.39 12.12 14.11 13.19 12.58 13.19C11.05 13.19 9.78 12.12 9.51 10.7L15.64 10.7ZM1.67 10.7L7.8 10.7C7.55 12.12 6.26 13.19 4.73 13.19C3.2 13.2 1.93 12.12 1.67 10.7ZM13.59 27.43L8.94 27.43L8.94 18.94C8.94 18.33 9.45 17.82 10.09 17.82L12.45 17.82C13.08 17.82 13.6 18.32 13.6 18.94L13.6 27.43L13.59 27.43ZM28.54 27.43L15.21 27.43L15.21 18.94C15.21 17.46 13.97 16.25 12.44 16.25L10.09 16.25C8.56 16.25 7.32 17.45 7.32 18.94L7.32 27.43L4.45 27.43L4.45 14.77C4.54 14.77 4.64 14.77 4.73 14.77C6.37 14.77 7.81 13.97 8.66 12.74C9.51 13.97 10.95 14.77 12.58 14.77C14.21 14.77 15.65 13.97 16.51 12.74C17.36 13.97 18.8 14.77 20.42 14.77C22.06 14.77 23.49 13.97 24.34 12.74C25.19 13.97 26.63 14.77 28.27 14.77C28.36 14.77 28.45 14.77 28.54 14.77L28.54 27.43L28.54 27.43ZM28.27 13.2C26.74 13.2 25.46 12.13 25.21 10.71L31.33 10.71C31.07 12.12 29.8 13.2 28.27 13.2Z" />
</svg>