<svg xmlns="http://www.w3.org/2000/svg" viewBox="0 0 29 38" width="29" height="38">
	<style>
		tspan { white-space:pre }
		.shp0 { fill: #ffffff } 
	</style>
	<path id="ÜRÜNLER" class="shp0" d="M21.74 31.15L6.26 31.15C5.79 31.15 5.41 30.77 5.41 30.31L5.41 21.67C5.41 21.21 5.79 20.83 6.26 20.83L8.88 20.83C9.49 18.55 11.57 16.92 14 16.92C16.43 16.92 18.51 18.55 19.12 20.83L21.74 20.83C22.21 20.83 22.59 21.21 22.59 21.67L22.59 30.31C22.59 30.77 22.21 31.15 21.74 31.15ZM7.12 29.46L20.88 29.46L20.88 22.52L18.42 22.52C17.99 22.52 17.62 22.2 17.57 21.77C17.36 19.97 15.83 18.61 14 18.61C12.17 18.61 10.64 19.97 10.43 21.77C10.38 22.2 10.01 22.52 9.58 22.52L7.12 22.52L7.12 29.46L7.12 29.46ZM28 9.05C28 8.79 27.89 8.57 27.71 8.41C27.71 8.41 27.7 8.41 27.7 8.41L24.55 5.72C25.21 5.25 25.64 4.48 25.64 3.61C25.64 2.17 24.47 1 23.02 1L4.98 1C3.53 1 2.36 2.17 2.36 3.61C2.36 4.48 2.79 5.25 3.45 5.72L0.3 8.41L0.3 8.41C0.12 8.56 0 8.79 0 9.05C0 9.52 0.38 9.9 0.85 9.9C1.21 9.9 1.48 9.95 1.72 10.05C0.95 10.87 0.5 11.94 0.47 13.09C0.47 13.11 0.46 33.93 0.46 33.93C0.46 36.17 2.3 38 4.56 38L23.44 38C25.7 38 27.54 36.17 27.54 33.93C27.54 33.93 27.53 13.11 27.53 13.09C27.5 11.94 27.05 10.87 26.28 10.05C26.52 9.95 26.79 9.9 27.15 9.9C27.62 9.9 28 9.52 28 9.05ZM4.98 2.69L23.02 2.69C23.53 2.69 23.94 3.1 23.94 3.61C23.94 4.11 23.53 4.52 23.02 4.52L4.98 4.52C4.47 4.52 4.06 4.11 4.06 3.61C4.06 3.1 4.47 2.69 4.98 2.69ZM5.49 6.21L22.51 6.21L25.33 8.62C24.98 8.8 24.69 9.02 24.43 9.22C23.93 9.61 23.57 9.89 22.76 9.89C21.96 9.89 21.6 9.61 21.1 9.22C20.5 8.77 19.77 8.2 18.38 8.2C16.99 8.2 16.26 8.77 15.67 9.22C15.17 9.61 14.8 9.89 14 9.89C13.2 9.89 12.83 9.61 12.33 9.22C11.74 8.77 11 8.2 9.62 8.2C8.23 8.2 7.49 8.77 6.9 9.22C6.4 9.61 6.04 9.89 5.23 9.89C4.43 9.89 4.07 9.61 3.57 9.22C3.31 9.02 3.02 8.8 2.67 8.62L5.49 6.21ZM25.83 33.93C25.83 35.24 24.76 36.31 23.44 36.31L4.56 36.31C3.24 36.31 2.17 35.24 2.17 33.93L2.17 13.22C2.17 12.37 2.53 11.57 3.16 11.02C3.66 11.32 4.3 11.58 5.23 11.58C6.62 11.58 7.36 11.02 7.95 10.56C8.45 10.18 8.81 9.9 9.62 9.9C10.42 9.9 10.78 10.18 11.29 10.56C11.88 11.02 12.61 11.58 14 11.58C15.39 11.58 16.12 11.02 16.71 10.56C17.21 10.18 17.58 9.9 18.38 9.9C19.19 9.9 19.55 10.18 20.05 10.56C20.64 11.02 21.38 11.58 22.76 11.58C23.7 11.58 24.34 11.32 24.84 11.02C25.47 11.57 25.83 12.37 25.83 13.22L25.83 33.93L25.83 33.93Z" />
</svg>