<svg xmlns="http://www.w3.org/2000/svg" viewBox="0 0 36 38" width="36" height="38">
	<style>
		tspan { white-space:pre }
		.shp0 { fill: #ffffff } 
	</style>
	<path id="YEMEK TARİFLERİ" class="shp0" d="M23.63 9.23C23.39 9.23 23.16 9.13 23 8.96C22.83 8.79 22.74 8.56 22.74 8.32C22.74 8.08 22.83 7.84 23 7.67C23.16 7.5 23.39 7.41 23.63 7.41C23.87 7.41 24.1 7.5 24.26 7.67C24.43 7.84 24.53 8.08 24.53 8.32C24.53 8.56 24.43 8.79 24.26 8.96C24.1 9.13 23.87 9.23 23.63 9.23ZM27.17 13.82C26.93 13.82 26.7 13.73 26.53 13.56C26.37 13.39 26.27 13.15 26.27 12.91C26.27 12.67 26.37 12.44 26.53 12.27C26.7 12.1 26.93 12 27.17 12C27.4 12 27.63 12.1 27.8 12.27C27.97 12.43 28.06 12.67 28.06 12.91C28.06 13.15 27.97 13.39 27.8 13.56C27.63 13.73 27.4 13.82 27.17 13.82ZM22.23 14.74C21.99 14.74 21.76 14.64 21.59 14.47C21.43 14.3 21.33 14.06 21.33 13.82C21.33 13.58 21.43 13.35 21.59 13.18C21.76 13.01 21.99 12.91 22.23 12.91C22.46 12.91 22.69 13.01 22.86 13.18C23.02 13.35 23.12 13.58 23.12 13.82C23.12 14.06 23.02 14.3 22.86 14.47C22.69 14.64 22.46 14.74 22.23 14.74ZM34.74 13.16L23.08 1.27C22.87 1.05 22.57 0.96 22.27 1.02C21.98 1.08 21.74 1.28 21.62 1.56L16.63 13.91C15.43 13.46 14.1 13.22 12.73 13.22C7.82 13.22 3.76 16.36 3.24 20.38L2.57 20.38C1.15 20.38 0 21.56 0 23C0 24.15 0.73 25.13 1.74 25.48C3.99 34.13 8.08 37.64 8.25 37.79C8.41 37.93 8.61 38 8.82 38L23.18 38C23.38 38 23.58 37.93 23.74 37.79C23.92 37.64 28 34.13 30.26 25.48C31.27 25.13 32 24.15 32 23C32 21.56 30.84 20.38 29.42 20.38L28.62 20.38C28.03 19.43 27.26 18.64 26.37 18.05L34.45 14.65C34.72 14.53 34.93 14.28 34.98 13.98C35.04 13.69 34.95 13.38 34.74 13.16ZM12.73 15.04C15.69 15.04 18.36 16.37 19.69 18.5C19.9 18.84 20.31 19 20.7 18.88C21.22 18.73 21.76 18.64 22.31 18.64C23.85 18.64 25.3 19.28 26.35 20.38L5.05 20.38C5.58 17.37 8.82 15.04 12.73 15.04ZM22.83 36.18L9.17 36.18C8.35 35.36 5.45 32.13 3.63 25.63L28.36 25.63C26.54 32.13 23.65 35.36 22.83 36.18ZM29.42 22.2C29.86 22.2 30.21 22.56 30.21 23C30.21 23.44 29.86 23.8 29.42 23.8L2.57 23.8C2.14 23.8 1.79 23.44 1.79 23C1.79 22.56 2.14 22.2 2.57 22.2L29.42 22.2ZM24.08 17.04C23.51 16.89 22.91 16.82 22.31 16.82C21.81 16.82 21.31 16.87 20.82 16.97C20.14 16.06 19.26 15.29 18.25 14.69L22.76 3.52L32.53 13.48L24.08 17.04Z" />
</svg>