<svg xmlns="http://www.w3.org/2000/svg" viewBox="0 0 40 31" width="40" height="31">
	<style>
		tspan { white-space:pre }
		.shp0 { fill: #ffffff } 
	</style>
	<path id="HABERLER" class="shp0" d="M28.83 9.06L28.83 1.83C28.83 1.45 28.63 1.11 28.3 0.94C27.98 0.77 27.59 0.79 27.29 1.01C20.28 5.98 16.26 6.62 13.54 6.62L5.76 6.62C2.68 6.62 0.18 9.19 0.18 12.35L0.18 14.48C0.18 17.64 2.68 20.22 5.76 20.22L9.49 20.22L13.55 30.3C13.7 30.68 14.07 30.92 14.45 30.92C14.58 30.92 14.7 30.9 14.82 30.85C15.33 30.63 15.56 30.05 15.36 29.54L11.61 20.22L13.53 20.22C23.01 20.22 26.89 25.37 27.06 25.6C27.26 25.87 27.54 26.01 27.85 26.01C27.95 26.01 28.05 26 28.15 25.97C28.55 25.83 28.82 25.45 28.82 25.02L28.82 17.79C30.76 17.33 32.2 15.55 32.2 13.42C32.22 11.3 30.77 9.51 28.83 9.06ZM2.13 14.48L2.13 12.35C2.13 10.3 3.76 8.62 5.76 8.62L9.18 8.62L9.18 18.21L5.76 18.21C3.76 18.21 2.13 16.54 2.13 14.48ZM26.87 22.6C24.7 20.76 20.44 18.21 13.53 18.21L11.12 18.21L11.12 8.62L13.53 8.62C16.32 8.62 20.33 8.04 26.87 3.71L26.87 22.6ZM28.83 15.68L28.83 11.16C29.67 11.55 30.26 12.42 30.26 13.42C30.26 14.42 29.67 15.29 28.83 15.68ZM38.27 12.42L34.45 12.42C33.91 12.42 33.47 12.87 33.47 13.42C33.47 13.98 33.91 14.43 34.45 14.43L38.27 14.43C38.82 14.43 39.26 13.98 39.26 13.42C39.26 12.86 38.82 12.42 38.27 12.42ZM33.1 10.3C33.25 10.7 33.61 10.94 34.01 10.94C34.12 10.94 34.24 10.92 34.36 10.88L38.07 9.39C38.57 9.18 38.82 8.6 38.62 8.08C38.42 7.57 37.85 7.31 37.35 7.52L33.65 9.01C33.15 9.21 32.9 9.79 33.1 10.3ZM38.07 17.45L34.36 15.96C33.86 15.75 33.3 16.01 33.1 16.52C32.9 17.04 33.14 17.62 33.65 17.82L37.35 19.31C37.47 19.36 37.59 19.38 37.71 19.38C38.1 19.38 38.47 19.13 38.62 18.74C38.82 18.23 38.57 17.65 38.07 17.45Z" />
</svg>