<svg xmlns="http://www.w3.org/2000/svg" viewBox="0 0 25 25" width="25" height="25">
	<style>
		tspan { white-space:pre }
		.shp0 { fill: #ffffff } 
	</style>
	<path id="HAMBURGER X" class="shp0" d="M0.45,0.45c-0.6,0.59 -0.6,1.56 0,2.15l10.88,10.75c0.6,0.59 1.57,0.59 2.18,0c0.6,-0.59 0.6,-1.56 0,-2.15l-10.88,-10.75c-0.6,-0.59 -1.57,-0.59 -2.18,0zM22.35,0.61l-10.96,10.83c-0.61,0.6 -0.61,1.57 0,2.17c0.61,0.6 1.59,0.6 2.19,0l10.96,-10.83c0.61,-0.6 0.61,-1.57 0,-2.17c-0.61,-0.6 -1.59,-0.6 -2.19,0zM24.55,24.55c0.6,-0.59 0.6,-1.56 0,-2.15l-10.88,-10.75c-0.6,-0.59 -1.57,-0.59 -2.18,0c-0.6,0.59 -0.6,1.56 0,2.15l10.88,10.75c0.6,0.59 1.57,0.59 2.18,0zM2.65,24.39l10.96,-10.83c0.61,-0.6 0.61,-1.57 0,-2.17c-0.61,-0.6 -1.59,-0.6 -2.19,0l-10.96,10.83c-0.61,0.6 -0.61,1.57 0,2.17c0.61,0.6 1.59,0.6 2.19,0z" />
</svg>