<svg xmlns="http://www.w3.org/2000/svg" viewBox="0 0 35 31" width="35" height="31">
	<style>
		tspan { white-space:pre }
		.shp0 { fill: #ffffff } 
	</style>
	<path id="ÜRETİM TESİSLERİ" class="shp0" d="M6.52 24.97L8.63 24.98C8.63 24.47 8.95 23.31 10.11 22.17C11.2 21.1 12.34 20.72 12.98 20.72L12.98 18.66C11.56 18.66 9.94 19.43 8.62 20.71C7.09 22.22 6.53 23.9 6.52 24.97ZM29.73 10.33L29.73 5.63L34 1.46L32.51 0L25.69 6.68L20.89 6.68C18.59 4.21 14.89 2.74 10.89 2.74C6.68 2.74 2.82 4.35 0.55 7.06L0 7.71L0.55 8.36C2.82 11.06 6.68 12.68 10.89 12.68C14.89 12.68 18.59 11.21 20.89 8.74L23.58 8.74L16.6 15.57C15.59 14.9 14.36 14.54 12.98 14.54C10.44 14.54 7.76 15.73 5.65 17.8C3.91 19.51 2.76 21.61 2.42 23.72C2.07 25.96 2.64 27.94 4.04 29.31C5.17 30.42 6.7 31 8.48 31C11.02 31 13.69 29.81 15.81 27.74C17.55 26.04 18.7 23.93 19.04 21.82C19.33 19.99 18.99 18.32 18.09 17.03L27.63 7.69L27.63 10.32C25.1 12.58 23.6 16.2 23.6 20.11C23.6 24.23 25.25 28.01 28.01 30.23L28.68 30.77L29.35 30.23C32.11 28.01 33.76 24.23 33.76 20.11C33.76 16.2 32.26 12.58 29.73 10.33ZM10.89 10.62C7.67 10.62 4.72 9.54 2.79 7.71C4.72 5.87 7.67 4.8 10.89 4.8C14.1 4.8 17.06 5.87 18.99 7.71C17.06 9.54 14.1 10.62 10.89 10.62ZM16.96 21.5C16.69 23.19 15.75 24.89 14.32 26.29C12.62 27.95 10.44 28.94 8.48 28.94C7.27 28.94 6.25 28.57 5.53 27.86C4.62 26.96 4.25 25.61 4.5 24.04C4.77 22.36 5.71 20.66 7.14 19.26C8.83 17.59 11.02 16.6 12.98 16.6C14.18 16.6 15.2 16.98 15.93 17.69C16.84 18.58 17.21 19.94 16.96 21.5ZM28.68 28.04C26.8 26.15 25.71 23.26 25.71 20.11C25.71 16.97 26.8 14.08 28.68 12.19C30.56 14.08 31.65 16.97 31.65 20.11C31.65 23.26 30.56 26.15 28.68 28.04Z" />
</svg>