<?xml version="1.0" standalone="no"?>
<!DOCTYPE svg PUBLIC "-//W3C//DTD SVG 20010904//EN"
 "http://www.w3.org/TR/2001/REC-SVG-20010904/DTD/svg10.dtd">
<svg version="1.0" xmlns="http://www.w3.org/2000/svg"
 width="1920.000000pt" height="1080.000000pt" viewBox="0 0 1920.000000 1080.000000"
 preserveAspectRatio="xMidYMid meet">

<g transform="translate(0.000000,1080.000000) scale(0.100000,-0.100000)"
fill="#000000" stroke="none">
<path d="M0 10173 c0 -362 4 -623 9 -618 5 6 53 83 107 172 87 142 128 208
163 263 10 15 91 156 145 252 14 26 32 53 40 60 7 8 23 32 35 54 12 21 45 77
73 124 70 117 154 271 162 298 l7 22 -370 0 -371 0 0 -627z"/>
<path d="M18141 10723 c11 -43 21 -89 24 -101 2 -13 12 -47 22 -75 9 -29 18
-54 18 -57 5 -16 40 -98 77 -177 13 -27 23 -50 23 -53 0 -6 33 -76 77 -162 16
-32 27 -58 24 -58 -3 0 10 -28 29 -62 19 -35 61 -123 95 -196 33 -74 66 -139
73 -146 7 -7 21 -33 32 -57 11 -24 25 -48 32 -52 7 -4 13 -13 13 -20 0 -7 16
-35 35 -62 19 -28 40 -57 45 -65 5 -8 34 -51 64 -95 30 -44 71 -109 92 -145
20 -36 41 -68 46 -71 5 -3 60 -107 123 -230 l114 -224 1 1093 0 1092 -539 0
-538 0 18 -77z"/>
<path d="M19181 2283 c-25 -139 -159 -489 -203 -534 -8 -8 -32 -47 -54 -87
-21 -41 -46 -81 -55 -90 -8 -9 -43 -65 -78 -124 -34 -58 -71 -115 -82 -127
-11 -12 -18 -21 -15 -21 3 0 -18 -37 -47 -82 -60 -96 -94 -161 -212 -393 -47
-93 -113 -213 -145 -265 -33 -52 -68 -111 -79 -130 -11 -19 -28 -44 -38 -55
-10 -12 -33 -41 -52 -65 -19 -25 -42 -54 -53 -65 -10 -11 -37 -40 -59 -65 -22
-25 -70 -75 -106 -112 l-65 -68 681 0 681 0 0 1175 c0 646 -1 1175 -3 1175 -2
0 -9 -30 -16 -67z"/>
<path d="M0 860 l0 -860 416 0 c329 0 414 3 408 13 -5 6 -44 66 -88 132 -45
67 -105 168 -133 225 -72 144 -163 337 -163 346 0 5 -29 76 -64 159 -36 82
-81 191 -100 240 -19 50 -79 185 -134 300 -54 116 -107 231 -117 258 -10 26
-19 47 -21 47 -2 0 -4 -387 -4 -860z"/>
</g>
</svg>
