<?xml version="1.0" standalone="no"?>
<!DOCTYPE svg PUBLIC "-//W3C//DTD SVG 20010904//EN"
 "http://www.w3.org/TR/2001/REC-SVG-20010904/DTD/svg10.dtd">
<svg version="1.0" xmlns="http://www.w3.org/2000/svg"
 width="1920.000000pt" height="1080.000000pt" viewBox="0 0 1920.000000 1080.000000"
 preserveAspectRatio="xMidYMid meet">

<g transform="translate(0.000000,1080.000000) scale(0.100000,-0.100000)"
fill="#000000" stroke="none">
<path d="M0 5400 l0 -5400 2566 2 2567 3 51 100 c28 55 61 114 73 131 31 43
133 225 133 236 0 5 11 28 24 51 30 51 66 177 66 230 0 153 -164 236 -412 207
-191 -23 -326 -69 -593 -203 -310 -156 -444 -194 -640 -183 -172 9 -341 62
-478 150 -85 54 -229 177 -342 291 -144 145 -157 168 -161 264 -2 56 2 73 32
134 20 38 40 74 45 81 29 36 68 87 169 221 62 83 152 194 199 249 203 233 271
330 308 439 43 126 32 220 -42 367 -82 163 -175 264 -440 476 -292 233 -385
314 -578 502 -268 260 -370 362 -469 472 -252 280 -342 460 -355 707 -10 183
25 302 114 391 89 88 182 113 338 88 50 -8 113 -21 140 -29 272 -78 374 -97
510 -97 280 0 490 95 721 325 120 120 192 209 267 332 108 176 153 332 141
483 -14 185 -87 291 -258 375 -102 51 -151 63 -411 100 -436 62 -627 121 -829
257 -149 101 -295 288 -363 465 -47 121 -55 150 -68 246 -29 210 13 422 110
556 33 47 149 152 200 182 112 66 253 118 393 145 83 16 356 19 537 6 219 -17
329 1 372 58 47 63 48 72 47 314 -3 537 -27 790 -98 1066 -36 137 -56 262 -56
347 0 76 22 176 45 203 7 8 18 25 24 38 l12 22 -1806 0 -1805 0 0 -5400z"/>
<path d="M15666 10788 c-16 -66 -67 -200 -106 -284 -75 -157 -117 -213 -365
-484 -190 -208 -226 -251 -291 -350 -74 -112 -77 -120 -175 -407 -135 -398
-189 -499 -604 -1128 -220 -333 -295 -497 -295 -646 0 -74 17 -107 73 -136 69
-36 333 -10 687 67 465 101 657 131 877 133 128 2 194 -4 317 -28 44 -8 93
-18 110 -21 17 -2 47 -9 66 -14 19 -5 60 -12 90 -16 30 -3 59 -8 63 -11 4 -3
115 -9 245 -13 296 -11 369 -29 515 -130 201 -138 347 -335 430 -580 59 -170
79 -269 79 -390 1 -166 -38 -285 -139 -427 -28 -40 -55 -79 -60 -87 -4 -8 -57
-69 -117 -135 -144 -159 -189 -219 -236 -318 -58 -119 -73 -200 -66 -353 3
-69 9 -136 11 -150 10 -45 7 -214 -4 -243 -6 -16 -11 -39 -11 -53 0 -29 -57
-182 -77 -205 -7 -8 -13 -20 -13 -26 0 -12 -98 -150 -143 -201 -41 -46 -147
-153 -147 -148 0 2 -37 -31 -81 -73 -45 -42 -84 -76 -88 -76 -13 0 -31 -17
-27 -24 3 -4 -9 -25 -26 -45 -45 -55 -142 -98 -253 -111 -78 -9 -120 -15 -145
-20 -14 -2 -38 -7 -55 -10 -369 -71 -556 -202 -654 -457 -44 -112 -63 -226
-64 -368 0 -179 7 -230 77 -503 28 -112 35 -159 37 -245 0 -59 -1 -116 -4
-127 -42 -168 -59 -220 -103 -310 -39 -80 -112 -198 -125 -203 -5 -2 -9 -9 -9
-16 0 -7 -9 -24 -21 -37 -11 -13 -37 -51 -57 -84 -19 -33 -38 -62 -41 -65 -13
-11 -61 -90 -61 -100 0 -5 -5 -10 -10 -10 -6 0 -9 -3 -8 -7 1 -5 -9 -28 -22
-53 -13 -25 -25 -54 -27 -65 -2 -10 -8 -22 -13 -25 -5 -3 -8 -17 -5 -30 2 -13
1 -28 -4 -34 -5 -6 -7 -47 -6 -91 3 -83 10 -123 54 -327 34 -157 61 -334 61
-405 l0 -83 2250 0 2250 0 0 5400 0 5400 -1765 0 c-1404 0 -1766 -3 -1769 -12z"/>
</g>
</svg>
