<?xml version="1.0" standalone="no"?>
<!DOCTYPE svg PUBLIC "-//W3C//DTD SVG 20010904//EN"
 "http://www.w3.org/TR/2001/REC-SVG-20010904/DTD/svg10.dtd">
<svg version="1.0" xmlns="http://www.w3.org/2000/svg"
 width="1920.000000pt" height="1080.000000pt" viewBox="0 0 1920.000000 1080.000000"
 preserveAspectRatio="xMidYMid meet">

<g transform="translate(0.000000,1080.000000) scale(0.100000,-0.100000)"
fill="#000000" stroke="none">
<path d="M0 5400 l0 -5400 1153 1 c1136 0 1151 1 1067 18 -179 38 -315 84
-454 153 -122 61 -152 82 -243 175 -162 164 -316 412 -391 629 -25 70 -102
337 -126 435 -2 8 -11 32 -20 52 -8 21 -15 38 -15 40 3 14 -127 277 -173 351
-21 33 -38 62 -38 66 0 4 -32 63 -71 131 -201 350 -321 641 -369 885 -48 251
-53 346 -49 899 2 286 4 567 3 625 -7 971 -1 1326 26 1523 6 43 24 121 40 174
23 76 37 104 67 136 37 39 122 87 154 87 9 0 22 6 28 14 7 8 33 16 59 19 55 6
147 29 158 40 4 4 23 7 41 7 19 0 41 7 49 15 9 8 26 15 39 15 13 0 37 11 53
25 17 14 33 25 36 25 11 0 54 53 67 83 6 15 15 27 19 27 8 0 24 115 23 170 0
35 -9 128 -18 185 -2 17 -12 55 -20 85 -9 30 -17 64 -19 75 -2 11 -52 119
-111 240 -107 221 -134 283 -140 320 -2 11 -11 53 -19 93 -9 40 -16 108 -16
150 0 110 44 304 92 412 26 57 65 150 78 185 4 11 13 34 20 50 16 40 58 169
75 235 12 47 30 149 50 292 22 157 69 344 104 423 5 11 21 46 36 78 14 32 49
97 78 145 82 138 177 336 177 368 0 12 3 24 8 28 4 4 7 11 7 14 1 4 11 36 23
72 12 36 23 78 26 93 8 45 97 321 108 335 6 6 8 12 4 12 -3 0 3 16 14 35 11
20 20 40 20 45 0 6 -310 10 -855 10 l-855 0 0 -5400z"/>
<path d="M17234 10765 c-7 -19 -14 -37 -14 -40 0 -14 -64 -135 -72 -135 -4 0
-8 -7 -8 -15 0 -8 -4 -15 -10 -15 -5 0 -10 -4 -10 -10 0 -21 -86 -111 -280
-293 -58 -53 -136 -136 -175 -184 -149 -184 -295 -345 -478 -528 -239 -239
-253 -258 -397 -530 -29 -55 -105 -183 -168 -285 -63 -101 -126 -208 -139
-237 -50 -108 -38 -203 28 -232 53 -23 245 -19 354 8 22 6 69 17 105 25 215
51 271 78 455 217 92 69 307 207 371 238 98 48 99 49 199 72 50 11 95 25 102
31 7 5 17 7 22 4 5 -4 12 -2 15 3 3 5 21 12 40 15 19 4 47 13 62 20 56 27 99
44 124 51 14 3 34 10 45 15 41 17 60 23 69 21 4 -1 14 3 21 9 7 6 17 10 21 9
5 -1 11 0 14 1 26 11 161 16 200 7 14 -3 30 -6 37 -6 6 -1 19 -9 29 -18 10
-10 19 -17 21 -15 8 6 22 1 41 -15 11 -10 30 -25 42 -33 58 -38 128 -105 235
-221 67 -73 145 -178 203 -274 25 -43 80 -152 87 -175 4 -14 15 -43 25 -65 10
-22 26 -80 35 -130 9 -49 21 -106 26 -125 11 -37 32 -566 24 -588 -6 -15 11
-348 26 -522 24 -278 29 -345 40 -520 26 -430 14 -681 -73 -1460 -16 -135 -15
-461 0 -620 24 -248 38 -504 30 -560 -5 -30 -10 -75 -12 -100 -2 -25 -13 -80
-25 -123 -12 -42 -26 -101 -31 -130 -6 -28 -24 -108 -40 -177 -52 -216 -71
-294 -77 -328 -3 -18 -9 -35 -14 -38 -5 -3 -9 -12 -9 -21 0 -16 -12 -44 -63
-153 -25 -55 -61 -113 -177 -284 -8 -13 -23 -30 -32 -40 -10 -10 -18 -21 -18
-25 0 -4 -10 -18 -22 -31 -13 -13 -30 -34 -38 -46 -29 -42 -132 -184 -212
-290 -39 -53 -78 -123 -143 -256 -9 -17 -25 -58 -36 -92 -24 -75 -119 -286
-136 -304 -7 -7 -13 -18 -13 -23 0 -6 -4 -7 -10 -4 -5 3 -10 0 -10 -7 0 -8 -9
-20 -21 -28 -11 -8 -32 -25 -46 -37 -15 -12 -47 -27 -72 -34 -25 -7 -51 -16
-58 -21 -7 -6 -17 -7 -23 -3 -6 4 -17 2 -24 -4 -7 -6 -26 -10 -42 -10 -45 1
-254 -16 -264 -21 -3 -2 -9 -4 -15 -5 -5 -1 -22 -7 -36 -13 -15 -6 -35 -12
-45 -14 -17 -3 -70 -44 -96 -73 -32 -37 -48 -59 -48 -67 0 -16 -2 -23 -13 -43
-38 -71 -17 -286 33 -335 3 -3 17 -23 31 -45 15 -22 43 -58 64 -80 59 -61 95
-159 111 -292 l7 -63 1158 0 1159 0 0 5400 0 5400 -976 0 -975 0 -15 -35z"/>
</g>
</svg>
