<?xml version="1.0" standalone="no"?>
<!DOCTYPE svg PUBLIC "-//W3C//DTD SVG 20010904//EN"
 "http://www.w3.org/TR/2001/REC-SVG-20010904/DTD/svg10.dtd">
<svg version="1.0" xmlns="http://www.w3.org/2000/svg"
 width="1920.000000pt" height="1080.000000pt" viewBox="0 0 1920.000000 1080.000000"
 preserveAspectRatio="xMidYMid meet">

<g transform="translate(0.000000,1080.000000) scale(0.100000,-0.100000)"
fill="#000000" stroke="none">
<path d="M0 5400 l0 -5400 9600 0 9600 0 0 5400 0 5400 -9600 0 -9600 0 0
-5400z m11835 4440 c272 -38 516 -197 670 -437 40 -61 136 -257 161 -328 23
-65 26 -286 5 -360 -21 -73 -94 -227 -145 -303 -142 -216 -278 -497 -301 -619
-2 -15 -7 -39 -11 -53 -14 -62 -11 -239 6 -335 36 -208 137 -427 239 -516 139
-123 289 -161 676 -174 488 -16 621 -34 870 -122 39 -14 84 -29 102 -34 51
-15 287 -137 301 -156 6 -9 12 -14 12 -10 0 4 27 -18 60 -50 33 -31 60 -63 60
-70 0 -7 4 -13 10 -13 5 0 12 -11 16 -25 3 -14 9 -25 13 -25 13 0 39 -113 45
-190 3 -45 0 -101 -9 -140 -17 -84 -85 -279 -123 -356 -17 -32 -44 -92 -62
-132 -17 -40 -69 -149 -115 -241 -75 -149 -93 -176 -162 -248 -43 -45 -98 -91
-123 -103 -25 -12 -54 -30 -65 -40 -22 -19 -147 -68 -240 -94 -53 -15 -150
-55 -255 -104 -43 -21 -190 -167 -190 -189 0 -3 -6 -19 -14 -36 -33 -76 -39
-103 -39 -180 0 -77 3 -128 20 -287 12 -122 6 -334 -12 -420 -3 -14 -7 -38
-10 -55 -2 -16 -7 -41 -10 -55 -3 -14 -7 -36 -10 -50 -3 -14 -19 -72 -36 -130
-17 -58 -31 -111 -32 -117 0 -7 -4 -13 -9 -13 -4 0 -8 -7 -8 -15 0 -34 -86
-206 -137 -275 -74 -99 -253 -221 -370 -252 -92 -24 -232 -38 -413 -43 -307
-7 -405 -15 -529 -40 -82 -16 -212 -68 -296 -118 -86 -51 -268 -177 -285 -198
-3 -3 -34 -30 -68 -59 -73 -60 -124 -110 -238 -236 -44 -49 -111 -122 -148
-163 -37 -41 -110 -124 -161 -185 -104 -124 -224 -249 -264 -274 -14 -9 -46
-32 -71 -51 -51 -39 -193 -108 -290 -141 -75 -26 -234 -65 -302 -75 -70 -10
-218 -13 -258 -4 -19 4 -48 10 -65 13 -149 26 -297 130 -421 296 -26 36 -51
67 -55 70 -3 3 -25 32 -48 64 -23 33 -58 78 -79 100 -20 22 -61 70 -90 106
-29 36 -67 82 -85 104 -17 21 -43 55 -57 74 -14 20 -34 46 -45 57 -11 12 -31
36 -45 54 -14 18 -40 49 -59 69 -18 21 -43 48 -55 62 -36 42 -157 144 -219
184 -49 32 -157 87 -179 92 -5 1 -9 2 -10 4 -4 3 -29 8 -93 20 -79 14 -161 13
-245 -4 -19 -4 -42 -8 -50 -10 -8 -2 -32 -10 -52 -20 -21 -9 -40 -16 -44 -16
-3 0 -20 -10 -37 -22 -18 -13 -32 -21 -33 -18 0 3 -50 -31 -110 -75 -153 -113
-217 -154 -309 -198 -243 -117 -590 -113 -955 12 -280 95 -483 223 -706 445
-229 228 -337 437 -376 727 -13 97 -2 176 30 219 33 44 93 100 107 100 8 0 15
4 15 9 0 18 171 61 320 81 195 25 256 31 505 50 77 6 151 13 165 15 14 2 44 6
67 10 24 4 45 7 48 6 2 0 23 6 45 14 22 8 44 15 48 16 61 14 209 101 220 131
2 4 9 14 16 21 23 24 43 63 70 137 51 139 44 424 -14 597 -71 210 -156 314
-505 618 -227 198 -307 288 -375 422 -105 205 -171 603 -171 1038 0 209 2 239
32 400 29 149 105 310 199 419 100 116 161 176 286 283 95 81 183 163 339 318
193 191 266 256 330 295 22 13 42 28 43 32 2 4 7 8 11 8 5 0 41 18 82 41 41
23 79 42 84 44 6 1 27 10 47 19 21 9 41 16 44 15 4 0 10 3 13 8 3 4 53 32 110
62 96 50 196 113 263 165 15 12 48 37 74 56 104 76 218 211 284 335 6 11 18
32 28 46 9 14 29 43 43 65 15 22 34 45 43 53 9 7 16 17 16 21 0 11 59 70 70
70 4 0 10 7 14 15 3 8 12 15 21 15 8 0 15 4 15 9 0 24 240 113 325 121 54 4
209 2 261 -4 81 -10 207 -36 309 -66 39 -11 95 -27 125 -35 30 -8 102 -33 160
-55 58 -22 109 -40 114 -40 5 0 91 -38 191 -85 100 -46 224 -98 276 -115 211
-69 404 -83 617 -45 52 9 157 47 201 72 66 39 114 85 229 228 140 172 223 253
324 318 165 108 292 153 480 173 35 3 64 8 66 9 9 8 238 4 307 -5z"/>
</g>
</svg>
