<svg xmlns="http://www.w3.org/2000/svg" viewBox="0 0 28 36" width="28" height="36">
	<style>
		tspan { white-space:pre }
		.shp0 { fill: #ffffff } 
	</style>
	<path id="KATALOG" class="shp0" d="M26.06 25.9L5.35 25.9C3.43 25.9 1.86 27.51 1.86 29.49C1.86 31.47 3.42 33.08 5.35 33.08L26.07 33.08C26.59 33.08 27 33.51 27 34.04C27 34.57 26.58 35 26.07 35L5.35 35C2.4 35 0 32.53 0 29.49L0 5.51C0 2.47 2.4 0 5.35 0L26.07 0C26.59 0 27 0.43 27 0.96L27 24.94C26.99 25.47 26.58 25.9 26.06 25.9ZM25.13 1.92L5.35 1.92C3.43 1.92 1.86 3.53 1.86 5.51L1.86 25.31C2.8 24.48 4.02 23.98 5.35 23.98L25.13 23.98L25.13 1.92L25.13 1.92ZM5.65 30.36C5.13 30.36 4.71 29.93 4.71 29.41C4.71 28.88 5.13 28.45 5.65 28.45L23.14 28.45C23.66 28.45 24.07 28.88 24.07 29.41C24.07 29.93 23.65 30.36 23.14 30.36L5.65 30.36ZM17.88 13.48C17.22 12.73 16.17 12.1 14.73 11.61C14.56 11.55 14.32 11.47 14.01 11.37C12.67 10.94 12 10.41 12 9.78C12 9.38 12.15 9.06 12.46 8.82C12.76 8.58 13.17 8.45 13.68 8.45C13.99 8.45 14.44 8.54 15.05 8.72C15.65 8.9 16.09 8.99 16.36 8.99C16.84 8.99 17.22 8.86 17.49 8.6C17.76 8.33 17.9 7.96 17.9 7.5C17.9 6.85 17.51 6.3 16.74 5.87C15.97 5.43 14.99 5.21 13.8 5.21C12.18 5.21 10.87 5.67 9.86 6.58C8.85 7.5 8.35 8.67 8.35 10.11C8.35 11.23 8.66 12.12 9.29 12.78C9.92 13.44 11.02 14.01 12.59 14.5C13.68 14.84 14.39 15.15 14.72 15.45C15.05 15.75 15.21 16.14 15.21 16.63C15.21 17.08 15.05 17.46 14.73 17.77C14.4 18.07 14 18.22 13.52 18.22C12.96 18.22 12.28 18.09 11.47 17.83C10.65 17.57 10.12 17.44 9.87 17.44C9.35 17.44 8.94 17.58 8.63 17.87C8.33 18.16 8.17 18.55 8.17 19.02C8.17 19.69 8.65 20.27 9.6 20.76C10.55 21.26 11.69 21.5 13.04 21.5C14.78 21.5 16.19 21.02 17.26 20.07C18.33 19.11 18.87 17.85 18.87 16.3C18.87 15.18 18.54 14.24 17.88 13.48Z" />
</svg>