<svg xmlns="http://www.w3.org/2000/svg" viewBox="0 0 32 18" width="32" height="18">
	<style>
		tspan { white-space:pre }
		.shp0 { fill: #ffffff } 
	</style>
	<path id="OK" class="shp0" d="M0.58,0.57c-0.77,0.76 -0.77,1.99 0,2.75l13.92,13.76c0.77,0.76 2.02,0.76 2.78,0c0.77,-0.76 0.77,-1.99 0,-2.75l-13.92,-13.76c-0.77,-0.76 -2.02,-0.76 -2.78,0zM28.61,0.78l-14.03,13.87c-0.77,0.77 -0.77,2.01 0,2.77c0.78,0.77 2.03,0.77 2.81,0l14.03,-13.87c0.78,-0.77 0.78,-2.01 0,-2.77c-0.78,-0.77 -2.03,-0.77 -2.81,0z" />
</svg>