<svg xmlns="http://www.w3.org/2000/svg" viewBox="0 0 17 30" width="17" height="30">
	<style>
		tspan { white-space:pre }
		.shp0 { fill: #ffffff } 
	</style>
	<path id="OK" class="shp0" d="M16.3,26.42l-12.32,-12.58c-0.68,-0.69 -1.78,-0.69 -2.46,0c-0.68,0.69 -0.68,1.82 0,2.52l12.32,12.58c0.68,0.69 1.78,0.69 2.46,0c0.68,-0.69 0.68,-1.82 0,-2.52zM16.11,1.07c-0.69,-0.7 -1.8,-0.7 -2.48,0l-12.41,12.68c-0.69,0.7 -0.69,1.84 0,2.54c0.69,0.7 1.8,0.7 2.48,0l12.41,-12.68c0.69,-0.7 0.69,-1.84 0,-2.54z" />
</svg>